<svg width="34" height="34" viewBox="0 0 34 34" fill="none" xmlns="http://www.w3.org/2000/svg">
<path d="M14.5248 16.9998H19.4748C22.3268 16.9998 23.6 15.7279 23.6 12.875V6.45182C23.0719 6.18565 22.5193 5.97145 21.9498 5.81193V5.44998C21.9498 2.71607 19.7337 0.5 16.9998 0.5C14.2662 0.5 12.0498 2.71607 12.0498 5.44998V5.81193C11.4806 5.97145 10.928 6.18565 10.3999 6.45182V12.875C10.3999 15.7279 11.6727 16.9998 14.5248 16.9998V16.9998ZM13.7 5.44998C13.7 3.62758 15.1774 2.14989 16.9998 2.14989C18.8225 2.14989 20.2999 3.62758 20.2999 5.44998V5.50044C20.0271 5.47506 19.7542 5.44998 19.4748 5.44998H14.5248C14.2456 5.44998 13.9725 5.47476 13.7 5.50044V5.44998Z" fill="url(#paint0_linear_1563_19204)"/>
<path d="M25.2501 7.53027V12.8748C25.2501 16.6526 23.2537 18.6499 19.4751 18.6499H14.5251C10.7467 18.6499 8.75029 16.6526 8.75029 12.8748V7.53027C6.6605 9.25147 5.44989 11.8174 5.4502 14.5247V29.3747C5.45261 31.6521 7.29798 33.4975 9.57508 33.4999H24.425C26.7024 33.4975 28.5478 31.6521 28.5502 29.3747V14.5247C28.5505 11.8174 27.3399 9.25147 25.2501 7.53027V7.53027ZM21.1253 26.8997H20.3002V27.7248C20.3002 28.1804 19.9307 28.5499 19.4751 28.5499C19.0195 28.5499 18.6503 28.1804 18.6503 27.7248V26.8997H12.8752C12.4196 26.8997 12.0501 26.5305 12.0501 26.0749C12.0501 25.6193 12.4196 25.2498 12.8752 25.2498H21.1253C21.5809 25.2498 21.95 25.6193 21.95 26.0749C21.95 26.5305 21.5809 26.8997 21.1253 26.8997V26.8997Z" fill="url(#paint1_linear_1563_19204)"/>
<path d="M31.0248 20.2998H30.1997V30.1164C32.1188 29.7221 33.4971 28.0342 33.4998 26.0749V22.7748C33.4983 21.4086 32.391 20.3013 31.0248 20.2998V20.2998Z" fill="url(#paint2_linear_1563_19204)"/>
<path d="M0.5 22.7748V26.0749C0.502417 28.0342 1.8807 29.7221 3.80009 30.1164V20.2998H2.97499C1.60879 20.3013 0.501511 21.4086 0.5 22.7748Z" fill="url(#paint3_linear_1563_19204)"/>
<defs>
<linearGradient id="paint0_linear_1563_19204" x1="10.3999" y1="10.3541" x2="23.6" y2="10.3541" gradientUnits="userSpaceOnUse">
<stop stop-color="#2942CB"/>
<stop offset="1" stop-color="#273DB1"/>
</linearGradient>
<linearGradient id="paint1_linear_1563_19204" x1="5.4502" y1="23.0399" x2="28.5502" y2="23.0399" gradientUnits="userSpaceOnUse">
<stop stop-color="#2942CB"/>
<stop offset="1" stop-color="#273DB1"/>
</linearGradient>
<linearGradient id="paint2_linear_1563_19204" x1="30.1997" y1="26.1625" x2="33.4998" y2="26.1625" gradientUnits="userSpaceOnUse">
<stop stop-color="#2942CB"/>
<stop offset="1" stop-color="#273DB1"/>
</linearGradient>
<linearGradient id="paint3_linear_1563_19204" x1="0.5" y1="26.1625" x2="3.80009" y2="26.1625" gradientUnits="userSpaceOnUse">
<stop stop-color="#2942CB"/>
<stop offset="1" stop-color="#273DB1"/>
</linearGradient>
</defs>
</svg>
