<svg width="15" height="14" viewBox="0 0 15 14" fill="none" xmlns="http://www.w3.org/2000/svg">
<path d="M11.7182 10.375C11.9512 10.375 12.1401 10.1861 12.1401 9.95311C12.1401 9.72012 11.9512 9.53125 11.7182 9.53125C11.4853 9.53125 11.2964 9.72012 11.2964 9.95311C11.2964 10.1861 11.4853 10.375 11.7182 10.375Z" fill="url(#paint0_linear_1563_6085)"/>
<path d="M2.85938 6.15625H7.92167V10.3748H2.85938V6.15625Z" fill="url(#paint1_linear_1563_6085)"/>
<path d="M11.7182 6.99997C11.9512 6.99997 12.1401 6.81109 12.1401 6.57811C12.1401 6.34512 11.9512 6.15625 11.7182 6.15625C11.4853 6.15625 11.2964 6.34512 11.2964 6.57811C11.2964 6.81109 11.4853 6.99997 11.7182 6.99997Z" fill="url(#paint2_linear_1563_6085)"/>
<path d="M12.9839 3.625H2.01557C1.68004 3.62537 1.35835 3.75882 1.12108 3.99608C0.883824 4.23335 0.750368 4.55504 0.75 4.89057L0.75 11.6403C0.750368 11.9758 0.883824 12.2975 1.12108 12.5348C1.35835 12.772 1.68004 12.9055 2.01557 12.9059H12.9839C13.3194 12.9055 13.6411 12.772 13.8784 12.5348C14.1156 12.2975 14.2491 11.9758 14.2494 11.6403V4.89057C14.2491 4.55504 14.1156 4.23335 13.8784 3.99608C13.6411 3.75882 13.3194 3.62537 12.9839 3.625V3.625ZM8.7653 10.7966C8.7653 10.9085 8.72085 11.0158 8.64174 11.0949C8.56262 11.174 8.45532 11.2184 8.34344 11.2184H2.43743C2.32555 11.2184 2.21825 11.174 2.13913 11.0949C2.06002 11.0158 2.01557 10.9085 2.01557 10.7966V5.73429C2.01557 5.6224 2.06002 5.5151 2.13913 5.43599C2.21825 5.35688 2.32555 5.31243 2.43743 5.31243H8.34344C8.45532 5.31243 8.56262 5.35688 8.64174 5.43599C8.72085 5.5151 8.7653 5.6224 8.7653 5.73429V10.7966ZM11.7183 11.2184C11.468 11.2184 11.2233 11.1442 11.0152 11.0052C10.8071 10.8661 10.6449 10.6684 10.5491 10.4372C10.4533 10.2059 10.4282 9.95146 10.477 9.70596C10.5259 9.46047 10.6464 9.23496 10.8234 9.05797C11.0004 8.88098 11.2259 8.76044 11.4714 8.71161C11.7169 8.66278 11.9714 8.68784 12.2026 8.78363C12.4339 8.87942 12.6315 9.04163 12.7706 9.24975C12.9096 9.45787 12.9839 9.70256 12.9839 9.95287C12.9835 10.2884 12.8501 10.6101 12.6128 10.8474C12.3755 11.0846 12.0538 11.2181 11.7183 11.2184ZM11.7183 7.84358C11.468 7.84358 11.2233 7.76935 11.0152 7.63029C10.8071 7.49123 10.6449 7.29357 10.5491 7.06232C10.4533 6.83106 10.4282 6.5766 10.477 6.3311C10.5259 6.08561 10.6464 5.8601 10.8234 5.68311C11.0004 5.50611 11.2259 5.38558 11.4714 5.33675C11.7169 5.28792 11.9714 5.31298 12.2026 5.40877C12.4339 5.50455 12.6315 5.66677 12.7706 5.87489C12.9096 6.08301 12.9839 6.3277 12.9839 6.578C12.9835 6.91354 12.8501 7.23523 12.6128 7.47249C12.3755 7.70975 12.0538 7.84321 11.7183 7.84358V7.84358Z" fill="url(#paint3_linear_1563_6085)"/>
<path d="M7.74863 2.78217H3.87598C3.93859 2.64411 4.01491 2.51267 4.10378 2.38985C4.27008 2.16024 4.481 1.96654 4.72391 1.82034C5.05218 1.62164 5.42858 1.5166 5.8123 1.5166C6.19602 1.5166 6.57243 1.62164 6.9007 1.82034C7.14361 1.96654 7.35452 2.16024 7.52083 2.38985C7.6097 2.51267 7.68602 2.64411 7.74863 2.78217Z" fill="url(#paint4_linear_1563_6085)"/>
<path d="M4.95599 2.69311C4.91258 2.73356 4.8607 2.76382 4.80412 2.7817H4.54679C4.47424 2.76476 4.40913 2.7248 4.36117 2.6678L4.10383 2.38937L2.78764 0.959275C2.71156 0.87704 2.67126 0.767951 2.67561 0.656005C2.67996 0.544059 2.72861 0.438427 2.81084 0.362346C2.89308 0.286265 3.00216 0.245968 3.11411 0.250319C3.22606 0.25467 3.33169 0.303314 3.40777 0.385548L4.72397 1.81986L4.9813 2.09829C5.01875 2.13898 5.0478 2.18666 5.0668 2.23859C5.0858 2.29053 5.09436 2.3457 5.09201 2.40095C5.08966 2.4562 5.07644 2.51044 5.0531 2.56058C5.02976 2.61071 4.99676 2.65575 4.95599 2.69311V2.69311Z" fill="url(#paint5_linear_1563_6085)"/>
<path d="M8.83698 0.959275L7.52078 2.38937L7.26345 2.6678C7.21637 2.72378 7.15293 2.76361 7.08205 2.7817H6.8205C6.76392 2.76382 6.71204 2.73356 6.66863 2.69311C6.62786 2.65575 6.59486 2.61071 6.57152 2.56058C6.54818 2.51044 6.53496 2.4562 6.53261 2.40095C6.53026 2.3457 6.53882 2.29053 6.55782 2.23859C6.57682 2.18666 6.60587 2.13898 6.64332 2.09829L6.90065 1.81986L8.21685 0.385548C8.29293 0.303314 8.39856 0.25467 8.51051 0.250319C8.62245 0.245968 8.73154 0.286265 8.81378 0.362346C8.89601 0.438427 8.94466 0.544059 8.94901 0.656005C8.95336 0.767951 8.91306 0.87704 8.83698 0.959275V0.959275Z" fill="url(#paint6_linear_1563_6085)"/>
<path d="M2.43748 13.7499C2.3256 13.7499 2.2183 13.7055 2.13918 13.6264C2.06007 13.5472 2.01562 13.4399 2.01562 13.3281V12.0625C2.01562 11.9506 2.06007 11.8433 2.13918 11.7642C2.2183 11.6851 2.3256 11.6406 2.43748 11.6406C2.54937 11.6406 2.65667 11.6851 2.73578 11.7642C2.81489 11.8433 2.85934 11.9506 2.85934 12.0625V13.3281C2.85934 13.4399 2.81489 13.5472 2.73578 13.6264C2.65667 13.7055 2.54937 13.7499 2.43748 13.7499Z" fill="url(#paint7_linear_1563_6085)"/>
<path d="M12.562 13.7499C12.4501 13.7499 12.3428 13.7055 12.2637 13.6264C12.1846 13.5472 12.1401 13.4399 12.1401 13.3281V12.0625C12.1401 11.9506 12.1846 11.8433 12.2637 11.7642C12.3428 11.6851 12.4501 11.6406 12.562 11.6406C12.6739 11.6406 12.7812 11.6851 12.8603 11.7642C12.9394 11.8433 12.9839 11.9506 12.9839 12.0625V13.3281C12.9839 13.4399 12.9394 13.5472 12.8603 13.6264C12.7812 13.7055 12.6739 13.7499 12.562 13.7499Z" fill="url(#paint8_linear_1563_6085)"/>
<defs>
<linearGradient id="paint0_linear_1563_6085" x1="11.2964" y1="10.0351" x2="12.1401" y2="10.0351" gradientUnits="userSpaceOnUse">
<stop stop-color="#2942CB"/>
<stop offset="1" stop-color="#273DB1"/>
</linearGradient>
<linearGradient id="paint1_linear_1563_6085" x1="2.85937" y1="8.67568" x2="7.92167" y2="8.67568" gradientUnits="userSpaceOnUse">
<stop stop-color="#2942CB"/>
<stop offset="1" stop-color="#273DB1"/>
</linearGradient>
<linearGradient id="paint2_linear_1563_6085" x1="11.2964" y1="6.66014" x2="12.1401" y2="6.66014" gradientUnits="userSpaceOnUse">
<stop stop-color="#2942CB"/>
<stop offset="1" stop-color="#273DB1"/>
</linearGradient>
<linearGradient id="paint3_linear_1563_6085" x1="0.75" y1="9.16774" x2="14.2494" y2="9.16774" gradientUnits="userSpaceOnUse">
<stop stop-color="#2942CB"/>
<stop offset="1" stop-color="#273DB1"/>
</linearGradient>
<linearGradient id="paint4_linear_1563_6085" x1="3.87598" y1="2.27243" x2="7.74863" y2="2.27243" gradientUnits="userSpaceOnUse">
<stop stop-color="#2942CB"/>
<stop offset="1" stop-color="#273DB1"/>
</linearGradient>
<linearGradient id="paint5_linear_1563_6085" x1="2.67529" y1="1.76199" x2="5.09239" y2="1.76199" gradientUnits="userSpaceOnUse">
<stop stop-color="#2942CB"/>
<stop offset="1" stop-color="#273DB1"/>
</linearGradient>
<linearGradient id="paint6_linear_1563_6085" x1="6.53223" y1="1.76199" x2="8.94933" y2="1.76199" gradientUnits="userSpaceOnUse">
<stop stop-color="#2942CB"/>
<stop offset="1" stop-color="#273DB1"/>
</linearGradient>
<linearGradient id="paint7_linear_1563_6085" x1="2.01562" y1="12.9003" x2="2.85934" y2="12.9003" gradientUnits="userSpaceOnUse">
<stop stop-color="#2942CB"/>
<stop offset="1" stop-color="#273DB1"/>
</linearGradient>
<linearGradient id="paint8_linear_1563_6085" x1="12.1401" y1="12.9003" x2="12.9839" y2="12.9003" gradientUnits="userSpaceOnUse">
<stop stop-color="#2942CB"/>
<stop offset="1" stop-color="#273DB1"/>
</linearGradient>
</defs>
</svg>
