<svg width="24" height="25" viewBox="0 0 24 25" fill="none" xmlns="http://www.w3.org/2000/svg">
<path d="M23.643 5.18415C22.808 5.55415 21.911 5.80415 20.968 5.91715C21.941 5.33494 22.669 4.41861 23.016 3.33915C22.1019 3.88214 21.1014 4.26434 20.058 4.46915C19.3564 3.72001 18.4271 3.22347 17.4143 3.05662C16.4016 2.88977 15.3621 3.06194 14.4572 3.5464C13.5524 4.03086 12.8328 4.80051 12.4102 5.73585C11.9875 6.67119 11.8855 7.7199 12.12 8.71915C10.2677 8.62614 8.45564 8.1447 6.80144 7.30605C5.14723 6.46741 3.68785 5.29031 2.51801 3.85115C2.11801 4.54115 1.88801 5.34115 1.88801 6.19315C1.88757 6.96014 2.07644 7.71539 2.43789 8.39188C2.79934 9.06837 3.32217 9.64519 3.96001 10.0711C3.22029 10.0476 2.49688 9.84773 1.85001 9.48815V9.54815C1.84994 10.6239 2.22204 11.6665 2.90319 12.4991C3.58434 13.3318 4.53258 13.9031 5.58701 14.1161C4.9008 14.3019 4.18135 14.3292 3.48301 14.1961C3.78051 15.1218 4.36001 15.9312 5.14038 16.5111C5.92075 17.091 6.86293 17.4123 7.83501 17.4301C6.18485 18.7256 4.1469 19.4282 2.04901 19.4251C1.67739 19.4252 1.30609 19.4035 0.937012 19.3601C3.06649 20.7293 5.54535 21.456 8.07701 21.4531C16.647 21.4531 21.332 14.3551 21.332 8.19915C21.332 7.99915 21.327 7.79715 21.318 7.59715C22.2293 6.93812 23.0159 6.12204 23.641 5.18715L23.643 5.18415V5.18415Z" fill="url(#paint0_linear_1204_11241)"/>
<defs>
<linearGradient id="paint0_linear_1204_11241" x1="0.937012" y1="14.0185" x2="23.643" y2="14.0185" gradientUnits="userSpaceOnUse">
<stop stop-color="#2942CB"/>
<stop offset="1" stop-color="#273DB1"/>
</linearGradient>
</defs>
</svg>
