<svg width="12" height="13" viewBox="0 0 12 13" fill="none" xmlns="http://www.w3.org/2000/svg">
<path d="M1.40625 12.7512C2.18179 12.7512 2.83594 12.1205 2.83594 11.345C2.83594 10.5694 2.18179 9.91528 1.40625 9.91528C0.630707 9.91528 0 10.5694 0 11.345C0 12.1205 0.630707 12.7512 1.40625 12.7512Z" fill="url(#paint0_linear_1449_19644)"/>
<path d="M0.351562 7.78247H1.05469C3.19043 7.78247 4.96875 9.5607 4.96875 11.6965V12.3997C4.96875 12.5938 5.12613 12.7512 5.32031 12.7512H6.02344C6.21762 12.7512 6.375 12.5938 6.375 12.3997V11.6965C6.375 8.78406 3.96716 6.37622 1.05469 6.37622H0.351562C0.157379 6.37622 0 6.5336 0 6.72778V7.43091C0 7.62509 0.157379 7.78247 0.351562 7.78247Z" fill="url(#paint1_linear_1449_19644)"/>
<path d="M0.351562 4.96997H1.05469C4.7438 4.96997 7.78125 8.00742 7.78125 11.6965V12.3997C7.78125 12.5938 7.93863 12.7512 8.13281 12.7512H8.83594C9.03012 12.7512 9.1875 12.5938 9.1875 12.3997V11.6965C9.1875 7.23077 5.52045 3.56372 1.05469 3.56372H0.351562C0.157379 3.56372 0 3.7211 0 3.91528V4.61841C0 4.81259 0.157379 4.96997 0.351562 4.96997Z" fill="url(#paint2_linear_1449_19644)"/>
<path d="M1.05469 0.751221H0.351562C0.157379 0.751221 0 0.9086 0 1.10278V1.80591C0 2.00009 0.157379 2.15747 0.351562 2.15747H1.05469C6.29709 2.15747 10.5938 6.45413 10.5938 11.6965V12.3997C10.5938 12.5938 10.7511 12.7512 10.9453 12.7512H11.6484C11.8426 12.7512 12 12.5938 12 12.3997V11.6965C12 5.67749 7.07373 0.751221 1.05469 0.751221Z" fill="url(#paint3_linear_1449_19644)"/>
<defs>
<linearGradient id="paint0_linear_1449_19644" x1="-3.63569e-09" y1="11.609" x2="2.83594" y2="11.609" gradientUnits="userSpaceOnUse">
<stop stop-color="#2942CB"/>
<stop offset="1" stop-color="#273DB1"/>
</linearGradient>
<linearGradient id="paint1_linear_1449_19644" x1="-8.17278e-09" y1="10.1835" x2="6.375" y2="10.1835" gradientUnits="userSpaceOnUse">
<stop stop-color="#2942CB"/>
<stop offset="1" stop-color="#273DB1"/>
</linearGradient>
<linearGradient id="paint2_linear_1449_19644" x1="-1.17784e-08" y1="9.0507" x2="9.1875" y2="9.0507" gradientUnits="userSpaceOnUse">
<stop stop-color="#2942CB"/>
<stop offset="1" stop-color="#273DB1"/>
</linearGradient>
<linearGradient id="paint3_linear_1449_19644" x1="-1.53841e-08" y1="7.91789" x2="12" y2="7.91789" gradientUnits="userSpaceOnUse">
<stop stop-color="#2942CB"/>
<stop offset="1" stop-color="#273DB1"/>
</linearGradient>
</defs>
</svg>
