<svg width="18" height="19" viewBox="0 0 18 19" fill="none" xmlns="http://www.w3.org/2000/svg">
<path d="M13.7961 4.28976C14.3468 3.67604 14.6679 3.03348 14.7805 2.37389C13.2233 1.06995 11.2203 0.24707 9.03508 0.24707C7.90678 0.24707 6.83081 0.465424 5.83545 0.847473C7.50221 2.5174 8.8961 4.49466 9.98636 6.62903C11.5928 6.04813 12.9318 5.2534 13.7961 4.28976Z" fill="url(#paint0_linear_1204_11245)"/>
<path d="M14.5812 4.99423C13.6138 6.07254 12.1756 6.94952 10.4575 7.58687C10.6711 8.05516 10.8673 8.5332 11.052 9.01743C11.9344 8.82764 12.8488 8.7197 13.7814 8.7197C15.2496 8.7197 16.6759 8.96881 17.9911 9.42667C17.9924 9.36638 18.0002 9.30774 18.0002 9.24704C18.0002 6.92549 17.1056 4.81406 15.6527 3.22021C15.4383 3.83792 15.0825 4.43571 14.5812 4.99423Z" fill="url(#paint1_linear_1204_11245)"/>
<path d="M0.205566 7.35278C1.32658 7.55095 2.56859 7.66521 3.7617 7.66521C5.61125 7.66521 7.38788 7.40263 8.97128 6.95164C7.8802 4.85532 6.47752 2.92598 4.80334 1.3125C2.52492 2.53789 0.766968 4.7552 0.205566 7.35278Z" fill="url(#paint2_linear_1204_11245)"/>
<path d="M17.9 10.5126C16.6278 10.0337 15.2276 9.77441 13.7812 9.77441C12.9704 9.77441 12.1742 9.85942 11.4062 10.0146C12.1859 12.3526 12.637 14.8798 12.714 17.4485C15.4568 16.2077 17.4616 13.5942 17.9 10.5126Z" fill="url(#paint3_linear_1204_11245)"/>
<path d="M0 9.24684C0 12.0203 1.3369 14.5383 3.3213 16.1839C3.53156 14.7852 4.16217 13.4091 5.18925 12.2575C6.41093 10.8878 8.10626 9.86208 10.0261 9.27664C9.84746 8.81577 9.65231 8.36395 9.44632 7.91846C7.7308 8.42726 5.79858 8.7195 3.76172 8.7195C2.51559 8.7195 1.2188 8.60043 0.0432587 8.39389C0.0166168 8.675 0 8.959 0 9.24684H0Z" fill="url(#paint4_linear_1204_11245)"/>
<path d="M5.97688 12.9595C4.93936 14.1229 4.37727 15.4874 4.30518 16.8834C5.68025 17.7421 7.29813 18.2469 9.03534 18.2469C9.94872 18.2469 10.83 18.1079 11.6609 17.8529C11.6206 15.2272 11.1797 12.6454 10.3783 10.269C8.6239 10.7952 7.08073 11.7217 5.97688 12.9595Z" fill="url(#paint5_linear_1204_11245)"/>
<defs>
<linearGradient id="paint0_linear_1204_11245" x1="5.83545" y1="4.05852" x2="14.7805" y2="4.05852" gradientUnits="userSpaceOnUse">
<stop stop-color="#2942CB"/>
<stop offset="1" stop-color="#273DB1"/>
</linearGradient>
<linearGradient id="paint1_linear_1204_11245" x1="10.4575" y1="6.92685" x2="18.0002" y2="6.92685" gradientUnits="userSpaceOnUse">
<stop stop-color="#2942CB"/>
<stop offset="1" stop-color="#273DB1"/>
</linearGradient>
<linearGradient id="paint2_linear_1204_11245" x1="0.205566" y1="5.10648" x2="8.97128" y2="5.10648" gradientUnits="userSpaceOnUse">
<stop stop-color="#2942CB"/>
<stop offset="1" stop-color="#273DB1"/>
</linearGradient>
<linearGradient id="paint3_linear_1204_11245" x1="11.4062" y1="14.3575" x2="17.9" y2="14.3575" gradientUnits="userSpaceOnUse">
<stop stop-color="#2942CB"/>
<stop offset="1" stop-color="#273DB1"/>
</linearGradient>
<linearGradient id="paint4_linear_1204_11245" x1="-1.28535e-08" y1="12.8548" x2="10.0261" y2="12.8548" gradientUnits="userSpaceOnUse">
<stop stop-color="#2942CB"/>
<stop offset="1" stop-color="#273DB1"/>
</linearGradient>
<linearGradient id="paint5_linear_1204_11245" x1="4.30518" y1="15.0336" x2="11.6609" y2="15.0336" gradientUnits="userSpaceOnUse">
<stop stop-color="#2942CB"/>
<stop offset="1" stop-color="#273DB1"/>
</linearGradient>
</defs>
</svg>
