<svg width="34" height="34" viewBox="0 0 34 34" fill="none" xmlns="http://www.w3.org/2000/svg">
<path d="M17 0.5C7.90154 0.5 0.5 7.90154 0.5 17C0.5 26.0985 7.90154 33.5 17 33.5C26.0985 33.5 33.5 26.0985 33.5 17C33.5 7.90154 26.0985 0.5 17 0.5ZM24.8472 25.5345C24.579 25.8026 24.2271 25.9376 23.8751 25.9376C23.5231 25.9376 23.1709 25.8026 22.903 25.5345L16.0279 18.6597C15.7693 18.4026 15.6251 18.0532 15.6251 17.6876V8.75C15.6251 7.98965 16.2409 7.37508 17 7.37508C17.7591 7.37508 18.3749 7.98965 18.3749 8.75V17.1183L24.8472 23.5903C25.3847 24.1281 25.3847 24.997 24.8472 25.5345V25.5345Z" fill="url(#paint0_linear_1622_1944)"/>
<defs>
<linearGradient id="paint0_linear_1622_1944" x1="0.5" y1="20.2083" x2="33.5" y2="20.2083" gradientUnits="userSpaceOnUse">
<stop stop-color="#2942CB"/>
<stop offset="1" stop-color="#273DB1"/>
</linearGradient>
</defs>
</svg>
