<svg width="34" height="30" viewBox="0 0 34 30" fill="none" xmlns="http://www.w3.org/2000/svg">
<path d="M13.7661 15.8018H19.5669V17.7354H13.7661V15.8018Z" fill="url(#paint0_linear_1563_16914)"/>
<path d="M26.939 17.7353H21.5005V18.7021C21.5005 19.2363 21.0679 19.6689 20.5337 19.6689H12.7993C12.2651 19.6689 11.8325 19.2363 11.8325 18.7021V17.7353H6.39404C5.144 17.7353 4.03848 16.9384 3.64269 15.7526L0.166504 5.32227V26.4365C0.166504 28.0357 1.46765 29.3368 3.06689 29.3368H30.2661C31.8654 29.3368 33.1665 28.0357 33.1665 26.4365V5.32302L29.6901 15.7526C29.2945 16.9384 28.189 17.7353 26.939 17.7353V17.7353Z" fill="url(#paint1_linear_1563_16914)"/>
<path d="M20.5338 0.333008H12.7994C11.2002 0.333008 9.89906 1.63416 9.89906 3.2334V4.2002H1.83008L5.47646 15.1409C5.60864 15.5364 5.97774 15.8018 6.39417 15.8018H11.8326V14.835C11.8326 14.3007 12.2652 13.8682 12.7994 13.8682H20.5338C21.0681 13.8682 21.5006 14.3007 21.5006 14.835V15.8018H26.9391C27.3555 15.8018 27.7246 15.5364 27.8568 15.1409L31.5034 4.2002H23.4342V3.2334C23.4342 1.63416 22.1331 0.333008 20.5338 0.333008V0.333008ZM11.8326 4.2002V3.2334C11.8326 2.6999 12.2659 2.2666 12.7994 2.2666H20.5338C21.0673 2.2666 21.5006 2.6999 21.5006 3.2334V4.2002H11.8326Z" fill="url(#paint2_linear_1563_16914)"/>
<defs>
<linearGradient id="paint0_linear_1563_16914" x1="13.7661" y1="16.9565" x2="19.5669" y2="16.9565" gradientUnits="userSpaceOnUse">
<stop stop-color="#2942CB"/>
<stop offset="1" stop-color="#273DB1"/>
</linearGradient>
<linearGradient id="paint1_linear_1563_16914" x1="0.166504" y1="19.6643" x2="33.1665" y2="19.6643" gradientUnits="userSpaceOnUse">
<stop stop-color="#2942CB"/>
<stop offset="1" stop-color="#273DB1"/>
</linearGradient>
<linearGradient id="paint2_linear_1563_16914" x1="1.83008" y1="9.57129" x2="31.5034" y2="9.57129" gradientUnits="userSpaceOnUse">
<stop stop-color="#2942CB"/>
<stop offset="1" stop-color="#273DB1"/>
</linearGradient>
</defs>
</svg>
