<svg width="14" height="14" viewBox="0 0 14 14" fill="none" xmlns="http://www.w3.org/2000/svg">
<path d="M2.72486 11.2401H3.81142L2.91563 8.9111C2.79542 8.95 2.67658 8.99321 2.56001 9.04059C2.23519 9.17259 2.07333 9.54624 2.1992 9.87348L2.72486 11.2401Z" fill="url(#paint0_linear_1449_19598)"/>
<path d="M4.65907 11.2401H7.11212L8.19679 8.42001C8.32264 8.09274 8.16079 7.71912 7.83598 7.5871C6.57826 7.07594 5.19298 7.07594 3.93527 7.5871C3.61045 7.71912 3.44858 8.09277 3.57443 8.42001L4.65907 11.2401Z" fill="url(#paint1_linear_1449_19598)"/>
<path d="M1.87751 11.2401L1.54075 10.3645C1.42051 10.4035 1.30168 10.4467 1.18513 10.494C0.88874 10.6145 0.728164 10.9361 0.797932 11.2401H1.87751V11.2401Z" fill="url(#paint2_linear_1449_19598)"/>
<path d="M9.04609 11.2401L9.57172 9.87348C9.69757 9.54624 9.5357 9.17259 9.21089 9.04057C9.09432 8.99319 8.97548 8.95 8.85527 8.9111L7.95947 11.2401H9.04609Z" fill="url(#paint3_linear_1449_19598)"/>
<path d="M10.5859 10.494C10.4694 10.4467 10.3505 10.4035 10.2303 10.3645L9.89355 11.2401H10.9731C11.0429 10.9361 10.8823 10.6145 10.5859 10.494Z" fill="url(#paint4_linear_1449_19598)"/>
<path d="M0.25 12.1681C0.25 12.6374 0.631744 13.0191 1.10097 13.0191H11.317C11.7862 13.0191 12.168 12.6374 12.168 12.1681V12.0312H0.25V12.1681Z" fill="url(#paint5_linear_1449_19598)"/>
<path d="M7.30591 3.26249H8.09692C8.09692 3.04688 8.14475 2.95655 8.21718 2.81983C8.31174 2.6413 8.42944 2.41911 8.42944 2.00693C8.42944 1.59476 8.31176 1.37254 8.21721 1.19398C8.14478 1.05721 8.09695 0.96688 8.09695 0.751223H7.30593C7.30593 1.16342 7.42361 1.38564 7.51816 1.56418C7.59059 1.70094 7.63842 1.79125 7.63842 2.00693C7.63842 2.22254 7.59059 2.31287 7.51816 2.44959C7.42358 2.62814 7.30591 2.85034 7.30591 3.26249Z" fill="url(#paint6_linear_1449_19598)"/>
<path d="M9.22705 3.26249H10.0181C10.0181 3.04688 10.0659 2.95655 10.1383 2.81983C10.2329 2.6413 10.3506 2.4191 10.3506 2.00696C10.3506 1.59479 10.2329 1.37256 10.1383 1.19401C10.0659 1.05727 10.0181 0.966932 10.0181 0.751248H9.22705C9.22705 1.16345 9.34473 1.38564 9.43928 1.5642C9.51171 1.70094 9.55954 1.79128 9.55954 2.00696C9.55954 2.22256 9.51171 2.3129 9.43928 2.44961C9.34473 2.62814 9.22705 2.85034 9.22705 3.26249Z" fill="url(#paint7_linear_1449_19598)"/>
<path d="M12.3947 5.69715C12.1934 5.69715 12.0024 5.74161 11.8305 5.82068V4.3192H6.28101V6.42597C6.90984 6.46816 7.53432 6.61075 8.13367 6.85433C8.48504 6.99711 8.76155 7.26743 8.91232 7.61542C8.98488 7.78296 9.02404 7.95941 9.03029 8.13688C9.19221 8.18716 9.35226 8.2442 9.50874 8.3078C9.86011 8.4506 10.1366 8.72089 10.2874 9.06891C10.3599 9.23642 10.3991 9.4129 10.4054 9.59035C10.5673 9.64063 10.7274 9.69766 10.8838 9.76123C11.2206 9.89811 11.4882 10.1523 11.6426 10.4795C11.7652 10.2047 11.8305 9.90356 11.8305 9.59148V9.21491C12.0024 9.29398 12.1934 9.33844 12.3947 9.33844C13.142 9.33844 13.7499 8.73046 13.7499 7.98319V7.05243C13.7499 6.3051 13.142 5.69715 12.3947 5.69715ZM12.9589 7.98314C12.9589 8.29427 12.7058 8.54737 12.3947 8.54737C12.0836 8.54737 11.8305 8.29424 11.8305 7.98314V7.05237C11.8305 6.74127 12.0836 6.48814 12.3947 6.48814C12.7058 6.48814 12.9589 6.74127 12.9589 7.05237V7.98314Z" fill="url(#paint8_linear_1449_19598)"/>
<defs>
<linearGradient id="paint0_linear_1449_19598" x1="2.15649" y1="10.3021" x2="3.81142" y2="10.3021" gradientUnits="userSpaceOnUse">
<stop stop-color="#2942CB"/>
<stop offset="1" stop-color="#273DB1"/>
</linearGradient>
<linearGradient id="paint1_linear_1449_19598" x1="3.53174" y1="9.61437" x2="8.23948" y2="9.61437" gradientUnits="userSpaceOnUse">
<stop stop-color="#2942CB"/>
<stop offset="1" stop-color="#273DB1"/>
</linearGradient>
<linearGradient id="paint2_linear_1449_19598" x1="0.781738" y1="10.8875" x2="1.87751" y2="10.8875" gradientUnits="userSpaceOnUse">
<stop stop-color="#2942CB"/>
<stop offset="1" stop-color="#273DB1"/>
</linearGradient>
<linearGradient id="paint3_linear_1449_19598" x1="7.95947" y1="10.3021" x2="9.61442" y2="10.3021" gradientUnits="userSpaceOnUse">
<stop stop-color="#2942CB"/>
<stop offset="1" stop-color="#273DB1"/>
</linearGradient>
<linearGradient id="paint4_linear_1449_19598" x1="9.89355" y1="10.8875" x2="10.9893" y2="10.8875" gradientUnits="userSpaceOnUse">
<stop stop-color="#2942CB"/>
<stop offset="1" stop-color="#273DB1"/>
</linearGradient>
<linearGradient id="paint5_linear_1449_19598" x1="0.25" y1="12.6212" x2="12.168" y2="12.6212" gradientUnits="userSpaceOnUse">
<stop stop-color="#2942CB"/>
<stop offset="1" stop-color="#273DB1"/>
</linearGradient>
<linearGradient id="paint6_linear_1449_19598" x1="7.30591" y1="2.25101" x2="8.42944" y2="2.25101" gradientUnits="userSpaceOnUse">
<stop stop-color="#2942CB"/>
<stop offset="1" stop-color="#273DB1"/>
</linearGradient>
<linearGradient id="paint7_linear_1449_19598" x1="9.22705" y1="2.25102" x2="10.3506" y2="2.25102" gradientUnits="userSpaceOnUse">
<stop stop-color="#2942CB"/>
<stop offset="1" stop-color="#273DB1"/>
</linearGradient>
<linearGradient id="paint8_linear_1449_19598" x1="6.28101" y1="7.99827" x2="13.7499" y2="7.99827" gradientUnits="userSpaceOnUse">
<stop stop-color="#2942CB"/>
<stop offset="1" stop-color="#273DB1"/>
</linearGradient>
</defs>
</svg>
