<svg width="34" height="34" viewBox="0 0 34 34" fill="none" xmlns="http://www.w3.org/2000/svg">
<path fill-rule="evenodd" clip-rule="evenodd" d="M14 0.5C13.6022 0.5 13.2206 0.658035 12.9393 0.93934C12.658 1.22064 12.5 1.60218 12.5 2C12.5 2.39782 12.658 2.77936 12.9393 3.06066C13.2206 3.34196 13.6022 3.5 14 3.5H15.5V5.093C13.3639 5.35907 11.3395 6.19765 9.641 7.52L7.871 5.75L9.0605 4.5605C9.33374 4.2776 9.48493 3.89869 9.48151 3.5054C9.47809 3.1121 9.32034 2.73588 9.04223 2.45777C8.76412 2.17966 8.3879 2.02191 7.9946 2.01849C7.60131 2.01507 7.2224 2.16626 6.9395 2.4395L2.4395 6.9395C2.16626 7.2224 2.01507 7.60131 2.01849 7.9946C2.02191 8.3879 2.17966 8.76412 2.45777 9.04223C2.73588 9.32034 3.1121 9.47809 3.5054 9.48151C3.89869 9.48493 4.2776 9.33374 4.5605 9.0605L5.75 7.871L7.52 9.641C6.19765 11.3395 5.35907 13.3639 5.093 15.5H3.5V14C3.5 13.6022 3.34196 13.2206 3.06066 12.9393C2.77936 12.658 2.39782 12.5 2 12.5C1.60218 12.5 1.22064 12.658 0.93934 12.9393C0.658035 13.2206 0.5 13.6022 0.5 14V20C0.5 20.3978 0.658035 20.7794 0.93934 21.0607C1.22064 21.342 1.60218 21.5 2 21.5C2.39782 21.5 2.77936 21.342 3.06066 21.0607C3.34196 20.7794 3.5 20.3978 3.5 20V18.5H5.093C5.366 20.69 6.2315 22.7 7.52 24.359L5.75 26.129L4.5605 24.9395C4.2776 24.6663 3.89869 24.5151 3.5054 24.5185C3.1121 24.5219 2.73588 24.6797 2.45777 24.9578C2.17966 25.2359 2.02191 25.6121 2.01849 26.0054C2.01507 26.3987 2.16626 26.7776 2.4395 27.0605L6.9395 31.5605C7.2224 31.8337 7.60131 31.9849 7.9946 31.9815C8.3879 31.9781 8.76412 31.8203 9.04223 31.5422C9.32034 31.2641 9.47809 30.8879 9.48151 30.4946C9.48493 30.1013 9.33374 29.7224 9.0605 29.4395L7.871 28.25L9.641 26.48C11.3397 27.802 13.364 28.6406 15.5 28.907V30.5H14C13.6022 30.5 13.2206 30.658 12.9393 30.9393C12.658 31.2206 12.5 31.6022 12.5 32C12.5 32.3978 12.658 32.7794 12.9393 33.0607C13.2206 33.342 13.6022 33.5 14 33.5H20C20.3978 33.5 20.7794 33.342 21.0607 33.0607C21.342 32.7794 21.5 32.3978 21.5 32C21.5 31.6022 21.342 31.2206 21.0607 30.9393C20.7794 30.658 20.3978 30.5 20 30.5H18.5V28.907C20.636 28.6406 22.6603 27.802 24.359 26.48L26.129 28.25L24.9395 29.4395C24.6663 29.7224 24.5151 30.1013 24.5185 30.4946C24.5219 30.8879 24.6797 31.2641 24.9578 31.5422C25.2359 31.8203 25.6121 31.9781 26.0054 31.9815C26.3987 31.9849 26.7776 31.8337 27.0605 31.5605L31.5605 27.0605C31.8337 26.7776 31.9849 26.3987 31.9815 26.0054C31.9781 25.6121 31.8203 25.2359 31.5422 24.9578C31.2641 24.6797 30.8879 24.5219 30.4946 24.5185C30.1013 24.5151 29.7224 24.6663 29.4395 24.9395L28.25 26.129L26.48 24.359C27.802 22.6603 28.6406 20.636 28.907 18.5H30.5V20C30.5 20.3978 30.658 20.7794 30.9393 21.0607C31.2206 21.342 31.6022 21.5 32 21.5C32.3978 21.5 32.7794 21.342 33.0607 21.0607C33.342 20.7794 33.5 20.3978 33.5 20V14C33.5 13.6022 33.342 13.2206 33.0607 12.9393C32.7794 12.658 32.3978 12.5 32 12.5C31.6022 12.5 31.2206 12.658 30.9393 12.9393C30.658 13.2206 30.5 13.6022 30.5 14V15.5H28.907C28.6406 13.364 27.802 11.3397 26.48 9.641L28.25 7.871L29.4395 9.0605C29.5779 9.20376 29.7434 9.31804 29.9264 9.39665C30.1094 9.47527 30.3062 9.51664 30.5054 9.51838C30.7046 9.52011 30.9021 9.48215 31.0864 9.40673C31.2708 9.33131 31.4383 9.21993 31.5791 9.07909C31.7199 8.93825 31.8313 8.77078 31.9067 8.58643C31.9822 8.40209 32.0201 8.20457 32.0184 8.0054C32.0166 7.80623 31.9753 7.6094 31.8967 7.42639C31.818 7.24339 31.7038 7.07787 31.5605 6.9395L27.0605 2.4395C26.9221 2.29623 26.7566 2.18196 26.5736 2.10335C26.3906 2.02473 26.1938 1.98336 25.9946 1.98162C25.7954 1.97989 25.5979 2.01785 25.4136 2.09327C25.2292 2.16869 25.0617 2.28007 24.9209 2.42091C24.7801 2.56175 24.6687 2.72922 24.5933 2.91357C24.5178 3.09791 24.4799 3.29543 24.4816 3.4946C24.4834 3.69377 24.5247 3.8906 24.6033 4.07361C24.682 4.25661 24.7962 4.42213 24.9395 4.5605L26.129 5.75L24.359 7.52C22.6603 6.19804 20.636 5.35951 18.5 5.093V3.5H20C20.3978 3.5 20.7794 3.34196 21.0607 3.06066C21.342 2.77936 21.5 2.39782 21.5 2C21.5 1.60218 21.342 1.22064 21.0607 0.93934C20.7794 0.658035 20.3978 0.5 20 0.5H14ZM18.5 20C18.5 19.6022 18.658 19.2206 18.9393 18.9393C19.2206 18.658 19.6022 18.5 20 18.5H20.0015C20.3993 18.5 20.7809 18.658 21.0622 18.9393C21.3435 19.2206 21.5015 19.6022 21.5015 20C21.5015 20.3978 21.3435 20.7794 21.0622 21.0607C20.7809 21.342 20.3993 21.5 20.0015 21.5H20C19.6022 21.5 19.2206 21.342 18.9393 21.0607C18.658 20.7794 18.5 20.3978 18.5 20ZM14 14.75C14 14.5511 14.079 14.3603 14.2197 14.2197C14.3603 14.079 14.5511 14 14.75 14C14.9489 14 15.1397 14.079 15.2803 14.2197C15.421 14.3603 15.5 14.5511 15.5 14.75C15.5 14.9489 15.421 15.1397 15.2803 15.2803C15.1397 15.421 14.9489 15.5 14.75 15.5C14.5511 15.5 14.3603 15.421 14.2197 15.2803C14.079 15.1397 14 14.9489 14 14.75ZM14.75 11C13.7554 11 12.8016 11.3951 12.0983 12.0983C11.3951 12.8016 11 13.7554 11 14.75C11 15.7446 11.3951 16.6984 12.0983 17.4017C12.8016 18.1049 13.7554 18.5 14.75 18.5C15.7446 18.5 16.6984 18.1049 17.4017 17.4017C18.1049 16.6984 18.5 15.7446 18.5 14.75C18.5 13.7554 18.1049 12.8016 17.4017 12.0983C16.6984 11.3951 15.7446 11 14.75 11Z" fill="url(#paint0_linear_1563_10742)"/>
<defs>
<linearGradient id="paint0_linear_1563_10742" x1="0.5" y1="20.2083" x2="33.5" y2="20.2083" gradientUnits="userSpaceOnUse">
<stop stop-color="#2942CB"/>
<stop offset="1" stop-color="#273DB1"/>
</linearGradient>
</defs>
</svg>
