<svg width="16" height="16" viewBox="0 0 16 16" fill="none" xmlns="http://www.w3.org/2000/svg">
<path d="M8.00021 0.5C6.01103 0.5 4.10332 1.2902 2.69676 2.69676C1.2902 4.10332 0.5 6.01103 0.5 8.00021C0.5 12.1425 3.85805 15.5 8.00021 15.5C8.98512 15.5 9.96039 15.306 10.8703 14.9291C11.7803 14.5522 12.6071 13.9997 13.3035 13.3033C13.9999 12.6069 14.5524 11.7801 14.9293 10.8701C15.3062 9.96019 15.5002 8.98492 15.5002 8C15.5002 7.01509 15.3062 6.03982 14.9293 5.12988C14.5524 4.21993 13.9999 3.39314 13.3035 2.6967C12.6071 2.00026 11.7803 1.44781 10.8703 1.0709C9.96039 0.693993 8.98512 0.5 8.00021 0.5V0.5ZM9.78082 11.9993C9.39545 12.1512 9.08801 12.267 8.8585 12.3466C8.60049 12.4308 8.33019 12.4712 8.05883 12.466C7.59241 12.466 7.22979 12.3524 6.97098 12.1251C6.84588 12.0186 6.74613 11.8855 6.67899 11.7355C6.61185 11.5855 6.57902 11.4224 6.58287 11.2582C6.58292 11.1186 6.5926 10.9792 6.61182 10.841C6.63139 10.6988 6.66263 10.5383 6.70556 10.3594L7.18699 8.65513C7.22985 8.49156 7.2662 8.33742 7.29535 8.19123C7.32321 8.05987 7.33787 7.92605 7.33911 7.79177C7.33911 7.57393 7.29424 7.42207 7.20449 7.33619C7.11478 7.25085 6.9436 7.20741 6.68946 7.20741C6.55964 7.20855 6.43065 7.2283 6.30642 7.26604C6.17563 7.30474 6.06361 7.34203 5.96954 7.37678L6.0984 6.85134C6.41392 6.72292 6.71569 6.61305 7.00371 6.52174C7.26796 6.43407 7.54416 6.38769 7.82256 6.38423C8.28552 6.38423 8.64265 6.49628 8.89395 6.72038C9.14525 6.94434 9.27081 7.23513 9.27065 7.59276C9.27065 7.66694 9.26233 7.79753 9.24459 7.9839C9.22957 8.15794 9.19726 8.33006 9.14813 8.4977L8.66851 10.1951C8.62537 10.3491 8.59022 10.5053 8.5632 10.6629C8.5368 10.7935 8.5212 10.926 8.51655 11.0592C8.51655 11.285 8.56685 11.4387 8.66744 11.5205C8.76893 11.6026 8.94376 11.6435 9.19193 11.6432C9.32632 11.6403 9.45973 11.6196 9.58868 11.5816C9.6982 11.5539 9.80548 11.518 9.90964 11.4742L9.78082 11.9993ZM9.69543 5.10404C9.47781 5.31028 9.18775 5.42259 8.88798 5.41667C8.58697 5.42234 8.29566 5.31015 8.07621 5.10404C7.96965 5.00877 7.88441 4.89209 7.82605 4.76161C7.76768 4.63114 7.73752 4.48982 7.73752 4.34689C7.73752 4.20396 7.76768 4.06264 7.82605 3.93217C7.88441 3.8017 7.96965 3.68502 8.07621 3.58975C8.29502 3.38238 8.58657 3.26931 8.88798 3.27493C9.18814 3.26913 9.47841 3.38231 9.69543 3.58975C9.80107 3.68557 9.88548 3.80244 9.94325 3.93283C10.001 4.06323 10.0309 4.20427 10.0309 4.34689C10.0309 4.48951 10.001 4.63056 9.94325 4.76095C9.88548 4.89135 9.80107 5.00821 9.69543 5.10404V5.10404Z" fill="url(#paint0_linear_1498_21958)"/>
<defs>
<linearGradient id="paint0_linear_1498_21958" x1="0.5" y1="9.45833" x2="15.5002" y2="9.45833" gradientUnits="userSpaceOnUse">
<stop stop-color="#2942CB"/>
<stop offset="1" stop-color="#273DB1"/>
</linearGradient>
</defs>
</svg>
