<svg width="18" height="19" viewBox="0 0 18 19" fill="none" xmlns="http://www.w3.org/2000/svg">
<path d="M13.2188 3.44629H4.78125C3.90894 3.44629 3.19922 4.15601 3.19922 5.02832V13.4658C3.19922 14.3381 3.90894 15.0479 4.78125 15.0479H13.2188C14.0911 15.0479 14.8008 14.3381 14.8008 13.4658V5.02832C14.8008 4.15601 14.0911 3.44629 13.2188 3.44629ZM9 12.9385C6.96478 12.9385 5.30859 11.2823 5.30859 9.24707C5.30859 7.21185 6.96478 5.55566 9 5.55566C11.0352 5.55566 12.6914 7.21185 12.6914 9.24707C12.6914 11.2823 11.0352 12.9385 9 12.9385ZM12.6914 6.61035C12.11 6.61035 11.6367 6.13712 11.6367 5.55566C11.6367 4.97421 12.11 4.50098 12.6914 4.50098C13.2729 4.50098 13.7461 4.97421 13.7461 5.55566C13.7461 6.13712 13.2729 6.61035 12.6914 6.61035Z" fill="url(#paint0_linear_1204_11236)"/>
<path d="M9 6.61035C7.54623 6.61035 6.36328 7.7933 6.36328 9.24707C6.36328 10.7008 7.54623 11.8838 9 11.8838C10.4538 11.8838 11.6367 10.7008 11.6367 9.24707C11.6367 7.7933 10.4538 6.61035 9 6.61035Z" fill="url(#paint1_linear_1204_11236)"/>
<path d="M15.3281 0.24707H2.67188C1.21811 0.24707 0 1.46518 0 2.91895V15.5752C0 17.029 1.21811 18.2471 2.67188 18.2471H15.3281C16.7819 18.2471 18 17.029 18 15.5752V2.91895C18 1.46518 16.7819 0.24707 15.3281 0.24707ZM15.8555 13.4658C15.8555 14.9196 14.6725 16.1025 13.2188 16.1025H4.78125C3.32748 16.1025 2.14453 14.9196 2.14453 13.4658V5.02832C2.14453 3.57455 3.32748 2.3916 4.78125 2.3916H13.2188C14.6725 2.3916 15.8555 3.57455 15.8555 5.02832V13.4658Z" fill="url(#paint2_linear_1204_11236)"/>
<defs>
<linearGradient id="paint0_linear_1204_11236" x1="3.19922" y1="10.375" x2="14.8008" y2="10.375" gradientUnits="userSpaceOnUse">
<stop stop-color="#2942CB"/>
<stop offset="1" stop-color="#273DB1"/>
</linearGradient>
<linearGradient id="paint1_linear_1204_11236" x1="6.36328" y1="9.75977" x2="11.6367" y2="9.75977" gradientUnits="userSpaceOnUse">
<stop stop-color="#2942CB"/>
<stop offset="1" stop-color="#273DB1"/>
</linearGradient>
<linearGradient id="paint2_linear_1204_11236" x1="-2.30761e-08" y1="10.9971" x2="18" y2="10.9971" gradientUnits="userSpaceOnUse">
<stop stop-color="#2942CB"/>
<stop offset="1" stop-color="#273DB1"/>
</linearGradient>
</defs>
</svg>
