<svg width="20" height="21" viewBox="0 0 20 21" fill="none" xmlns="http://www.w3.org/2000/svg">
<path d="M18.3234 18.683H15.4697V19.1586C15.4697 19.4109 15.57 19.6528 15.7483 19.8312C15.9267 20.0096 16.1686 20.1098 16.4209 20.1098H17.3722C17.6245 20.1098 17.8664 20.0096 18.0448 19.8312C18.2231 19.6528 18.3234 19.4109 18.3234 19.1586V18.683Z" fill="url(#paint0_linear_1472_20532)"/>
<path d="M4.05483 18.683H1.20117V19.1586C1.20117 19.4109 1.30139 19.6528 1.47978 19.8312C1.65817 20.0096 1.90011 20.1098 2.15239 20.1098H3.10362C3.3559 20.1098 3.59784 20.0096 3.77624 19.8312C3.95459 19.6528 4.05483 19.4109 4.05483 19.1586V18.683Z" fill="url(#paint1_linear_1472_20532)"/>
<path d="M14.0429 7.744V8.21958H5.48193V7.744C5.48193 7.23944 5.68236 6.75552 6.03915 6.39877C6.39591 6.04198 6.87982 5.84155 7.38438 5.84155H12.1404C12.645 5.84155 13.1289 6.04198 13.4857 6.39877C13.8425 6.75552 14.0429 7.23944 14.0429 7.744Z" fill="url(#paint2_linear_1472_20532)"/>
<path d="M14.5182 0.609802H5.00603C4.12336 0.61081 3.27712 0.961894 2.65299 1.58603C2.02885 2.21017 1.67776 3.0564 1.67676 3.93908V8.6666C2.26787 8.37268 2.91903 8.21969 3.5792 8.21956H4.53041V7.74394C4.53041 6.98709 4.83107 6.26129 5.36622 5.72609C5.90141 5.19094 6.62722 4.89028 7.38406 4.89028H12.1402C12.897 4.89028 13.6228 5.19094 14.158 5.72609C14.6932 6.26129 14.9938 6.98709 14.9938 7.74394V8.21956H15.945C16.6052 8.21969 17.2564 8.37268 17.8475 8.6666V3.93908C17.8465 3.0564 17.4954 2.21017 16.8712 1.58603C16.2471 0.961894 15.4009 0.61081 14.5182 0.609802Z" fill="url(#paint3_linear_1472_20532)"/>
<path d="M0.25 14.8781V16.7805C0.25 17.0328 0.350217 17.2747 0.528606 17.4531C0.70699 17.6315 0.948936 17.7317 1.20122 17.7317H18.3231C18.5754 17.7317 18.8174 17.6315 18.9957 17.4531C19.1741 17.2747 19.2744 17.0328 19.2744 16.7805V14.8781H0.25Z" fill="url(#paint4_linear_1472_20532)"/>
<path d="M19.2744 13.9269V12.5001C19.2744 11.6171 18.9236 10.7702 18.2992 10.1459C17.6749 9.52155 16.8281 9.17078 15.9451 9.17078H3.57927C2.69629 9.17078 1.84947 9.52155 1.22512 10.1459C0.600759 10.7702 0.25 11.6171 0.25 12.5001V13.9269H19.2744Z" fill="url(#paint5_linear_1472_20532)"/>
<defs>
<linearGradient id="paint0_linear_1472_20532" x1="15.4697" y1="19.5351" x2="18.3234" y2="19.5351" gradientUnits="userSpaceOnUse">
<stop stop-color="#2942CB"/>
<stop offset="1" stop-color="#273DB1"/>
</linearGradient>
<linearGradient id="paint1_linear_1472_20532" x1="1.20117" y1="19.5351" x2="4.05483" y2="19.5351" gradientUnits="userSpaceOnUse">
<stop stop-color="#2942CB"/>
<stop offset="1" stop-color="#273DB1"/>
</linearGradient>
<linearGradient id="paint2_linear_1472_20532" x1="5.48193" y1="7.26177" x2="14.0429" y2="7.26176" gradientUnits="userSpaceOnUse">
<stop stop-color="#2942CB"/>
<stop offset="1" stop-color="#273DB1"/>
</linearGradient>
<linearGradient id="paint3_linear_1472_20532" x1="1.67676" y1="5.4215" x2="17.8475" y2="5.4215" gradientUnits="userSpaceOnUse">
<stop stop-color="#2942CB"/>
<stop offset="1" stop-color="#273DB1"/>
</linearGradient>
<linearGradient id="paint4_linear_1472_20532" x1="0.25" y1="16.5823" x2="19.2744" y2="16.5823" gradientUnits="userSpaceOnUse">
<stop stop-color="#2942CB"/>
<stop offset="1" stop-color="#273DB1"/>
</linearGradient>
<linearGradient id="paint5_linear_1472_20532" x1="0.25" y1="12.0112" x2="19.2744" y2="12.0112" gradientUnits="userSpaceOnUse">
<stop stop-color="#2942CB"/>
<stop offset="1" stop-color="#273DB1"/>
</linearGradient>
</defs>
</svg>
