<svg width="15" height="14" viewBox="0 0 15 14" fill="none" xmlns="http://www.w3.org/2000/svg">
<path d="M11.877 5.81348V5.02246H1.54102V7C1.54102 8.83255 2.50787 10.4663 3.95514 11.377H9.43646C9.79189 11.1533 10.1439 10.8867 10.4341 10.5859H11.4814C13.0079 10.5859 14.25 9.34381 14.25 7.81738V5.81348H11.877ZM13.459 7.81738C13.459 8.90775 12.5718 9.79492 11.4814 9.79492H11.051C11.5681 8.99473 11.877 8.02207 11.877 7V6.60449H13.459V7.81738Z" fill="url(#paint0_linear_1563_4098)"/>
<path d="M4.97058 0.25L4.5318 0.908151C4.68901 1.01283 4.779 1.18121 4.779 1.3701C4.779 1.559 4.68901 1.72738 4.5318 1.83206C4.15639 2.08233 3.93237 2.50102 3.93237 2.95214C3.93237 3.40325 4.15639 3.82194 4.5318 4.07221L4.97055 3.41406C4.81335 3.30938 4.72336 3.141 4.72336 2.95211C4.72336 2.76321 4.81335 2.59483 4.97055 2.49016C5.346 2.23991 5.57001 1.82122 5.57001 1.37008C5.57001 0.918962 5.346 0.500277 4.97058 0.25Z" fill="url(#paint1_linear_1563_4098)"/>
<path d="M6.94812 0.25L6.50934 0.908151C6.66655 1.01283 6.75654 1.18121 6.75654 1.3701C6.75654 1.559 6.66655 1.72738 6.50934 1.83206C6.13393 2.08233 5.90991 2.50102 5.90991 2.95214C5.90991 3.40325 6.13393 3.82194 6.50934 4.07221L6.94809 3.41406C6.79089 3.30938 6.7009 3.141 6.7009 2.95211C6.7009 2.76321 6.79089 2.59483 6.94809 2.49016C7.32354 2.23991 7.54755 1.82122 7.54755 1.37008C7.54755 0.918962 7.32354 0.500277 6.94812 0.25Z" fill="url(#paint2_linear_1563_4098)"/>
<path d="M8.92566 0.25L8.48688 0.908151C8.64408 1.01283 8.73408 1.18121 8.73408 1.3701C8.73408 1.559 8.64408 1.72738 8.48688 1.83206C8.11147 2.08233 7.88745 2.50102 7.88745 2.95214C7.88745 3.40325 8.11147 3.82194 8.48688 4.07221L8.92563 3.41406C8.76843 3.30938 8.67844 3.141 8.67844 2.95211C8.67844 2.76321 8.76843 2.59483 8.92563 2.49016C9.30107 2.23991 9.52509 1.82122 9.52509 1.37008C9.52509 0.918962 9.30107 0.500277 8.92566 0.25Z" fill="url(#paint3_linear_1563_4098)"/>
<path d="M0.75 12.168C0.75 13.0417 1.4583 13.75 2.33203 13.75H11.0859C11.9597 13.75 12.668 13.0417 12.668 12.168H0.75Z" fill="url(#paint4_linear_1563_4098)"/>
<defs>
<linearGradient id="paint0_linear_1563_4098" x1="1.54102" y1="8.8175" x2="14.25" y2="8.8175" gradientUnits="userSpaceOnUse">
<stop stop-color="#2942CB"/>
<stop offset="1" stop-color="#273DB1"/>
</linearGradient>
<linearGradient id="paint1_linear_1563_4098" x1="3.93237" y1="2.53271" x2="5.57001" y2="2.53271" gradientUnits="userSpaceOnUse">
<stop stop-color="#2942CB"/>
<stop offset="1" stop-color="#273DB1"/>
</linearGradient>
<linearGradient id="paint2_linear_1563_4098" x1="5.90991" y1="2.53271" x2="7.54755" y2="2.53271" gradientUnits="userSpaceOnUse">
<stop stop-color="#2942CB"/>
<stop offset="1" stop-color="#273DB1"/>
</linearGradient>
<linearGradient id="paint3_linear_1563_4098" x1="7.88745" y1="2.53271" x2="9.52509" y2="2.53271" gradientUnits="userSpaceOnUse">
<stop stop-color="#2942CB"/>
<stop offset="1" stop-color="#273DB1"/>
</linearGradient>
<linearGradient id="paint4_linear_1563_4098" x1="0.75" y1="13.1128" x2="12.668" y2="13.1128" gradientUnits="userSpaceOnUse">
<stop stop-color="#2942CB"/>
<stop offset="1" stop-color="#273DB1"/>
</linearGradient>
</defs>
</svg>
