<svg width="14" height="12" viewBox="0 0 14 12" fill="none" xmlns="http://www.w3.org/2000/svg">
<path d="M11.5175 6.27506C11.4851 6.25871 11.4526 6.25053 11.4199 6.25053C11.3494 6.25053 11.2874 6.27759 11.2333 6.33177L10.7137 6.85126C10.6651 6.90004 10.6408 6.9595 10.6408 7.02992V9.09168C10.6408 9.44893 10.5138 9.75455 10.2593 10.009C10.005 10.2634 9.69915 10.3906 9.34195 10.3906H2.58793C2.2307 10.3906 1.9249 10.2634 1.67057 10.009C1.41618 9.75458 1.28906 9.44896 1.28906 9.09168V2.3378C1.28906 1.9806 1.41618 1.67485 1.67057 1.42043C1.9249 1.16607 2.2307 1.03891 2.58793 1.03891H9.34201C9.46108 1.03891 9.58285 1.05515 9.7073 1.08765C9.73978 1.09839 9.76412 1.10388 9.78018 1.10388C9.85063 1.10388 9.91288 1.0769 9.96696 1.02279L10.3647 0.625014C10.4296 0.560158 10.4541 0.481626 10.4377 0.389702C10.4215 0.303096 10.3727 0.240828 10.2915 0.202983C9.99947 0.0678692 9.68272 0 9.3418 0H2.58793C1.94392 0 1.39323 0.228659 0.935917 0.685975C0.478658 1.14335 0.25 1.69396 0.25 2.33798V9.09205C0.25 9.73596 0.478658 10.2866 0.935946 10.744C1.39326 11.2014 1.94395 11.43 2.58796 11.43H9.34195C9.98589 11.43 10.5366 11.2014 10.9939 10.744C11.4513 10.2866 11.6801 9.73599 11.6801 9.09205V6.51041C11.6801 6.39685 11.6257 6.31843 11.5175 6.27506Z" fill="url(#paint0_linear_1563_19209)"/>
<path d="M13.5554 1.61518L12.6624 0.722139C12.5325 0.592286 12.3781 0.527344 12.1995 0.527344C12.0211 0.527344 11.8666 0.592286 11.7369 0.722139L6.48454 5.97442L4.34969 3.83942C4.21978 3.70948 4.06548 3.64462 3.88698 3.64462C3.70839 3.64462 3.5542 3.70948 3.42426 3.83942L2.53131 4.73237C2.40142 4.86223 2.33643 5.01653 2.33643 5.19517C2.33643 5.37372 2.40142 5.52795 2.53131 5.65788L6.02193 9.14851C6.15184 9.27847 6.30611 9.34331 6.48465 9.34331C6.66318 9.34331 6.81743 9.2785 6.94737 9.14851L13.5553 2.54059C13.6851 2.41074 13.7502 2.25643 13.7502 2.07788C13.7502 1.89932 13.6853 1.74504 13.5554 1.61518Z" fill="url(#paint1_linear_1563_19209)"/>
<defs>
<linearGradient id="paint0_linear_1563_19209" x1="0.25" y1="6.82627" x2="11.6801" y2="6.82627" gradientUnits="userSpaceOnUse">
<stop stop-color="#2942CB"/>
<stop offset="1" stop-color="#273DB1"/>
</linearGradient>
<linearGradient id="paint1_linear_1563_19209" x1="2.33643" y1="5.79243" x2="13.7502" y2="5.79243" gradientUnits="userSpaceOnUse">
<stop stop-color="#2942CB"/>
<stop offset="1" stop-color="#273DB1"/>
</linearGradient>
</defs>
</svg>
