<svg width="23" height="34" viewBox="0 0 23 34" fill="none" xmlns="http://www.w3.org/2000/svg">
<path d="M8.5835 3.41174V0.5H14.407V3.41174H8.5835ZM22.657 14.0883V30.5883C22.657 32.1964 21.3533 33.5 19.7452 33.5H3.24523C1.63712 33.5 0.333496 32.1964 0.333496 30.5883V14.0883C0.333496 13.5522 0.768038 13.1177 1.3041 13.1177H21.6864C22.2224 13.1177 22.657 13.5522 22.657 14.0883ZM19.26 11.1765H16.3482V0.5L18.9757 3.1275C19.1577 3.30951 19.26 3.55637 19.26 3.81379V11.1765H19.26ZM4.0148 3.1275L6.6423 0.5V11.1765H3.73056V3.81379C3.7305 3.55637 3.83278 3.30951 4.0148 3.1275Z" fill="url(#paint0_linear_1563_11189)"/>
<defs>
<linearGradient id="paint0_linear_1563_11189" x1="0.333496" y1="20.2083" x2="22.657" y2="20.2083" gradientUnits="userSpaceOnUse">
<stop stop-color="#2942CB"/>
<stop offset="1" stop-color="#273DB1"/>
</linearGradient>
</defs>
</svg>
